<svg width="47" height="38" viewBox="0 0 47 38" fill="none" xmlns="http://www.w3.org/2000/svg">
<path d="M44.5674 0.0107422H3.43187C2.52299 0.0116543 1.65161 0.374935 1.00893 1.02086C0.366264 1.66679 0.00481376 2.54258 0.00390625 3.45606V34.4639C0.00481376 35.3774 0.366264 36.2532 1.00893 36.8991C1.65161 37.545 2.52299 37.9083 3.43187 37.9092H44.5674C45.4761 37.9079 46.3472 37.5444 46.9898 36.8986C47.6324 36.2528 47.994 35.3773 47.9953 34.4639V3.45606C47.9944 2.54258 47.633 1.66679 46.9903 1.02086C46.3477 0.374935 45.4763 0.0116543 44.5674 0.0107422ZM3.43187 3.45606H22.2856V34.4639H3.43187V3.45606ZM25.7136 34.4639V3.45606H44.5674L44.5708 34.4639H25.7136Z" fill="white"/>
</svg>
