<svg width="48" height="41" viewBox="0 0 48 41" fill="none" xmlns="http://www.w3.org/2000/svg">
<path d="M42.5867 8.52554H37.5171V3.45592C37.5171 2.55955 37.161 1.6999 36.5272 1.06608C35.8933 0.432251 35.0337 0.0761719 34.1373 0.0761719H13.8588C12.9625 0.0761719 12.1028 0.432251 11.469 1.06608C10.8352 1.6999 10.4791 2.55955 10.4791 3.45592V8.52554H5.40946C4.06492 8.52554 2.77544 9.05966 1.8247 10.0104C0.873963 10.9611 0.339844 12.2506 0.339844 13.5952V37.2534C0.339844 38.1497 0.695923 39.0094 1.32975 39.6432C1.96357 40.2771 2.82323 40.6331 3.71959 40.6331H44.2766C45.1729 40.6331 46.0326 40.2771 46.6664 39.6432C47.3002 39.0094 47.6563 38.1497 47.6563 37.2534V13.5952C47.6563 12.2506 47.1222 10.9611 46.1714 10.0104C45.2207 9.05966 43.9312 8.52554 42.5867 8.52554ZM13.8588 3.45592H34.1373V8.52554H13.8588V3.45592ZM44.2766 37.2534H3.71959V22.0445H17.2386V30.4939H30.7576V22.0445H44.2766V37.2534ZM20.6183 22.0445H27.3778V27.1141H20.6183V22.0445ZM3.71959 18.6648V13.5952C3.71959 13.147 3.89763 12.7172 4.21454 12.4002C4.53146 12.0833 4.96128 11.9053 5.40946 11.9053H42.5867C43.0349 11.9053 43.4647 12.0833 43.7816 12.4002C44.0985 12.7172 44.2766 13.147 44.2766 13.5952V18.6648H3.71959Z" fill="#0062AD"/>
</svg>
